<mxfile host="app.diagrams.net" modified="2024-07-22T22:47:28.533Z" agent="Mozilla/5.0 (X11; Linux x86_64) AppleWebKit/537.36 (KHTML, like Gecko) Chrome/126.0.0.0 Safari/537.36" etag="b7RkOXcEmHe4NlkMWsQV" version="24.7.1" type="device">
  <diagram name="Page-1" id="uUEMZePtohTzFKdebmXJ">
    <mxGraphModel dx="1900" dy="1683" grid="1" gridSize="10" guides="1" tooltips="1" connect="1" arrows="1" fold="1" page="1" pageScale="1" pageWidth="850" pageHeight="1100" math="0" shadow="0">
      <root>
        <mxCell id="0" />
        <mxCell id="1" parent="0" />
        <mxCell id="ljoYFPdGVZSIKUD5f7fS-3" value="" style="edgeStyle=orthogonalEdgeStyle;rounded=0;orthogonalLoop=1;jettySize=auto;html=1;" parent="1" source="ljoYFPdGVZSIKUD5f7fS-1" target="ljoYFPdGVZSIKUD5f7fS-2" edge="1">
          <mxGeometry relative="1" as="geometry" />
        </mxCell>
        <mxCell id="ljoYFPdGVZSIKUD5f7fS-1" value="Data Viz&lt;div&gt;( Metabase&amp;nbsp;&lt;span style=&quot;background-color: initial;&quot;&gt;)&lt;/span&gt;&lt;/div&gt;" style="rounded=0;whiteSpace=wrap;html=1;" parent="1" vertex="1">
          <mxGeometry x="620" y="10" width="120" height="60" as="geometry" />
        </mxCell>
        <mxCell id="ljoYFPdGVZSIKUD5f7fS-2" value="Banco de Dados&lt;div&gt;( SQLite )&lt;/div&gt;" style="rounded=0;whiteSpace=wrap;html=1;" parent="1" vertex="1">
          <mxGeometry x="420" y="10" width="120" height="60" as="geometry" />
        </mxCell>
        <mxCell id="ljoYFPdGVZSIKUD5f7fS-5" value="" style="edgeStyle=orthogonalEdgeStyle;rounded=0;orthogonalLoop=1;jettySize=auto;html=1;" parent="1" source="ljoYFPdGVZSIKUD5f7fS-4" target="ljoYFPdGVZSIKUD5f7fS-2" edge="1">
          <mxGeometry relative="1" as="geometry" />
        </mxCell>
        <mxCell id="ljoYFPdGVZSIKUD5f7fS-4" value="Jupyter Notebook&lt;br&gt;( Deploy )" style="rounded=0;whiteSpace=wrap;html=1;" parent="1" vertex="1">
          <mxGeometry x="230" y="10" width="120" height="60" as="geometry" />
        </mxCell>
        <mxCell id="ljoYFPdGVZSIKUD5f7fS-10" value="" style="edgeStyle=orthogonalEdgeStyle;rounded=0;orthogonalLoop=1;jettySize=auto;html=1;" parent="1" source="ljoYFPdGVZSIKUD5f7fS-6" target="ljoYFPdGVZSIKUD5f7fS-4" edge="1">
          <mxGeometry relative="1" as="geometry" />
        </mxCell>
        <mxCell id="ljoYFPdGVZSIKUD5f7fS-6" value="Cronjob&lt;br&gt;PaperMill" style="rounded=0;whiteSpace=wrap;html=1;" parent="1" vertex="1">
          <mxGeometry x="230" y="-160" width="120" height="60" as="geometry" />
        </mxCell>
        <mxCell id="ljoYFPdGVZSIKUD5f7fS-7" value="" style="endArrow=none;dashed=1;html=1;dashPattern=1 3;strokeWidth=2;rounded=0;" parent="1" edge="1">
          <mxGeometry width="50" height="50" relative="1" as="geometry">
            <mxPoint x="50" y="-60" as="sourcePoint" />
            <mxPoint x="810" y="-60" as="targetPoint" />
          </mxGeometry>
        </mxCell>
        <mxCell id="ljoYFPdGVZSIKUD5f7fS-9" value="" style="edgeStyle=orthogonalEdgeStyle;rounded=0;orthogonalLoop=1;jettySize=auto;html=1;" parent="1" source="ljoYFPdGVZSIKUD5f7fS-8" target="ljoYFPdGVZSIKUD5f7fS-4" edge="1">
          <mxGeometry relative="1" as="geometry" />
        </mxCell>
        <mxCell id="ljoYFPdGVZSIKUD5f7fS-8" value="Local Folder" style="rounded=0;whiteSpace=wrap;html=1;" parent="1" vertex="1">
          <mxGeometry x="40" y="10" width="120" height="60" as="geometry" />
        </mxCell>
        <mxCell id="ljoYFPdGVZSIKUD5f7fS-11" value="&lt;b&gt;&lt;font style=&quot;font-size: 21px;&quot;&gt;Nuvem&lt;/font&gt;&lt;/b&gt;" style="text;html=1;align=center;verticalAlign=middle;whiteSpace=wrap;rounded=0;" parent="1" vertex="1">
          <mxGeometry x="730" y="-130" width="60" height="30" as="geometry" />
        </mxCell>
        <mxCell id="ljoYFPdGVZSIKUD5f7fS-12" value="&lt;b&gt;&lt;font style=&quot;font-size: 21px;&quot;&gt;Local&lt;/font&gt;&lt;/b&gt;" style="text;html=1;align=center;verticalAlign=middle;whiteSpace=wrap;rounded=0;" parent="1" vertex="1">
          <mxGeometry x="730" y="-40" width="60" height="30" as="geometry" />
        </mxCell>
        <mxCell id="ljoYFPdGVZSIKUD5f7fS-25" style="edgeStyle=orthogonalEdgeStyle;rounded=0;orthogonalLoop=1;jettySize=auto;html=1;entryX=1;entryY=0.5;entryDx=0;entryDy=0;" parent="1" source="ljoYFPdGVZSIKUD5f7fS-14" target="ljoYFPdGVZSIKUD5f7fS-15" edge="1">
          <mxGeometry relative="1" as="geometry" />
        </mxCell>
        <mxCell id="ljoYFPdGVZSIKUD5f7fS-14" value="Data Viz&lt;div&gt;( Metabase&amp;nbsp;&lt;span style=&quot;background-color: initial;&quot;&gt;)&lt;/span&gt;&lt;/div&gt;" style="rounded=0;whiteSpace=wrap;html=1;" parent="1" vertex="1">
          <mxGeometry x="640" y="280" width="120" height="60" as="geometry" />
        </mxCell>
        <mxCell id="ljoYFPdGVZSIKUD5f7fS-15" value="Banco de Dados&lt;div&gt;( Postgresql )&lt;/div&gt;" style="rounded=0;whiteSpace=wrap;html=1;" parent="1" vertex="1">
          <mxGeometry x="430" y="280" width="120" height="60" as="geometry" />
        </mxCell>
        <mxCell id="ljoYFPdGVZSIKUD5f7fS-24" style="edgeStyle=orthogonalEdgeStyle;rounded=0;orthogonalLoop=1;jettySize=auto;html=1;entryX=0;entryY=0.5;entryDx=0;entryDy=0;" parent="1" source="ljoYFPdGVZSIKUD5f7fS-17" target="ljoYFPdGVZSIKUD5f7fS-15" edge="1">
          <mxGeometry relative="1" as="geometry">
            <mxPoint x="440" y="240" as="targetPoint" />
          </mxGeometry>
        </mxCell>
        <mxCell id="ljoYFPdGVZSIKUD5f7fS-17" value="Jupyter Notebook&lt;br&gt;( Deploy )" style="rounded=0;whiteSpace=wrap;html=1;" parent="1" vertex="1">
          <mxGeometry x="240" y="280" width="120" height="60" as="geometry" />
        </mxCell>
        <mxCell id="ljoYFPdGVZSIKUD5f7fS-18" value="" style="edgeStyle=orthogonalEdgeStyle;rounded=0;orthogonalLoop=1;jettySize=auto;html=1;" parent="1" source="ljoYFPdGVZSIKUD5f7fS-19" target="ljoYFPdGVZSIKUD5f7fS-17" edge="1">
          <mxGeometry relative="1" as="geometry" />
        </mxCell>
        <mxCell id="ljoYFPdGVZSIKUD5f7fS-19" value="Cronjob&lt;br&gt;PaperMill" style="rounded=0;whiteSpace=wrap;html=1;" parent="1" vertex="1">
          <mxGeometry x="240" y="170" width="120" height="60" as="geometry" />
        </mxCell>
        <mxCell id="ljoYFPdGVZSIKUD5f7fS-27" value="" style="edgeStyle=orthogonalEdgeStyle;rounded=0;orthogonalLoop=1;jettySize=auto;html=1;" parent="1" source="ljoYFPdGVZSIKUD5f7fS-21" target="ljoYFPdGVZSIKUD5f7fS-17" edge="1">
          <mxGeometry relative="1" as="geometry" />
        </mxCell>
        <mxCell id="ljoYFPdGVZSIKUD5f7fS-21" value="S3" style="rounded=0;whiteSpace=wrap;html=1;" parent="1" vertex="1">
          <mxGeometry x="20" y="280" width="120" height="60" as="geometry" />
        </mxCell>
        <mxCell id="ljoYFPdGVZSIKUD5f7fS-22" value="&lt;b&gt;&lt;font style=&quot;font-size: 21px;&quot;&gt;Nuvem&lt;/font&gt;&lt;/b&gt;" style="text;html=1;align=center;verticalAlign=middle;whiteSpace=wrap;rounded=0;" parent="1" vertex="1">
          <mxGeometry x="760" y="220" width="60" height="30" as="geometry" />
        </mxCell>
        <mxCell id="ljoYFPdGVZSIKUD5f7fS-23" value="&lt;b&gt;&lt;font style=&quot;font-size: 21px;&quot;&gt;Local&lt;/font&gt;&lt;/b&gt;" style="text;html=1;align=center;verticalAlign=middle;whiteSpace=wrap;rounded=0;" parent="1" vertex="1">
          <mxGeometry x="750" y="440" width="60" height="30" as="geometry" />
        </mxCell>
        <mxCell id="ljoYFPdGVZSIKUD5f7fS-30" value="" style="endArrow=none;dashed=1;html=1;dashPattern=1 3;strokeWidth=2;rounded=0;" parent="1" edge="1">
          <mxGeometry width="50" height="50" relative="1" as="geometry">
            <mxPoint x="-40" y="400" as="sourcePoint" />
            <mxPoint x="830" y="400" as="targetPoint" />
          </mxGeometry>
        </mxCell>
        <mxCell id="01dSE9Dyc-d_T7btdRE--1" style="edgeStyle=orthogonalEdgeStyle;rounded=0;orthogonalLoop=1;jettySize=auto;html=1;entryX=1;entryY=0.5;entryDx=0;entryDy=0;" edge="1" parent="1" source="01dSE9Dyc-d_T7btdRE--2" target="01dSE9Dyc-d_T7btdRE--3">
          <mxGeometry relative="1" as="geometry" />
        </mxCell>
        <mxCell id="01dSE9Dyc-d_T7btdRE--2" value="Data Viz&lt;div&gt;( Metabase&amp;nbsp;&lt;span style=&quot;background-color: initial;&quot;&gt;)&lt;/span&gt;&lt;/div&gt;" style="rounded=0;whiteSpace=wrap;html=1;" vertex="1" parent="1">
          <mxGeometry x="790" y="770" width="120" height="60" as="geometry" />
        </mxCell>
        <mxCell id="01dSE9Dyc-d_T7btdRE--3" value="Banco de Dados&lt;div&gt;( Postgresql )&lt;/div&gt;" style="rounded=0;whiteSpace=wrap;html=1;" vertex="1" parent="1">
          <mxGeometry x="580" y="770" width="120" height="60" as="geometry" />
        </mxCell>
        <mxCell id="01dSE9Dyc-d_T7btdRE--4" style="edgeStyle=orthogonalEdgeStyle;rounded=0;orthogonalLoop=1;jettySize=auto;html=1;entryX=0;entryY=0.5;entryDx=0;entryDy=0;" edge="1" parent="1" source="01dSE9Dyc-d_T7btdRE--5" target="01dSE9Dyc-d_T7btdRE--3">
          <mxGeometry relative="1" as="geometry">
            <mxPoint x="420" y="730" as="targetPoint" />
          </mxGeometry>
        </mxCell>
        <mxCell id="01dSE9Dyc-d_T7btdRE--5" value="EC2&lt;br&gt;( Jupyter Notebook )" style="rounded=0;whiteSpace=wrap;html=1;" vertex="1" parent="1">
          <mxGeometry x="220" y="770" width="120" height="60" as="geometry" />
        </mxCell>
        <mxCell id="01dSE9Dyc-d_T7btdRE--6" value="" style="edgeStyle=orthogonalEdgeStyle;rounded=0;orthogonalLoop=1;jettySize=auto;html=1;" edge="1" parent="1" source="01dSE9Dyc-d_T7btdRE--7" target="01dSE9Dyc-d_T7btdRE--5">
          <mxGeometry relative="1" as="geometry">
            <Array as="points">
              <mxPoint x="280" y="660" />
            </Array>
          </mxGeometry>
        </mxCell>
        <mxCell id="01dSE9Dyc-d_T7btdRE--7" value="Cronjob&lt;br&gt;PaperMill" style="rounded=0;whiteSpace=wrap;html=1;" vertex="1" parent="1">
          <mxGeometry x="120" y="630" width="120" height="60" as="geometry" />
        </mxCell>
        <mxCell id="01dSE9Dyc-d_T7btdRE--8" value="" style="edgeStyle=orthogonalEdgeStyle;rounded=0;orthogonalLoop=1;jettySize=auto;html=1;" edge="1" parent="1" source="01dSE9Dyc-d_T7btdRE--9" target="01dSE9Dyc-d_T7btdRE--5">
          <mxGeometry relative="1" as="geometry" />
        </mxCell>
        <mxCell id="01dSE9Dyc-d_T7btdRE--9" value="S3&lt;br&gt;( HD da AWS )" style="rounded=0;whiteSpace=wrap;html=1;" vertex="1" parent="1">
          <mxGeometry y="770" width="120" height="60" as="geometry" />
        </mxCell>
        <mxCell id="01dSE9Dyc-d_T7btdRE--10" value="&lt;b&gt;&lt;font style=&quot;font-size: 21px;&quot;&gt;Nuvem&lt;/font&gt;&lt;/b&gt;" style="text;html=1;align=center;verticalAlign=middle;whiteSpace=wrap;rounded=0;" vertex="1" parent="1">
          <mxGeometry x="810" y="690" width="60" height="30" as="geometry" />
        </mxCell>
        <mxCell id="01dSE9Dyc-d_T7btdRE--11" value="&lt;b&gt;&lt;font style=&quot;font-size: 21px;&quot;&gt;Local&lt;/font&gt;&lt;/b&gt;" style="text;html=1;align=center;verticalAlign=middle;whiteSpace=wrap;rounded=0;" vertex="1" parent="1">
          <mxGeometry x="840" y="955" width="60" height="30" as="geometry" />
        </mxCell>
        <mxCell id="01dSE9Dyc-d_T7btdRE--12" value="" style="endArrow=none;dashed=1;html=1;dashPattern=1 3;strokeWidth=2;rounded=0;" edge="1" parent="1">
          <mxGeometry width="50" height="50" relative="1" as="geometry">
            <mxPoint x="-60" y="890" as="sourcePoint" />
            <mxPoint x="810" y="890" as="targetPoint" />
          </mxGeometry>
        </mxCell>
        <mxCell id="01dSE9Dyc-d_T7btdRE--18" value="" style="edgeStyle=orthogonalEdgeStyle;rounded=0;orthogonalLoop=1;jettySize=auto;html=1;" edge="1" parent="1" source="01dSE9Dyc-d_T7btdRE--13" target="01dSE9Dyc-d_T7btdRE--14">
          <mxGeometry relative="1" as="geometry" />
        </mxCell>
        <mxCell id="01dSE9Dyc-d_T7btdRE--13" value="Jupyter Notebook&lt;br&gt;( Deploy )" style="rounded=0;whiteSpace=wrap;html=1;" vertex="1" parent="1">
          <mxGeometry x="220" y="940" width="120" height="60" as="geometry" />
        </mxCell>
        <mxCell id="01dSE9Dyc-d_T7btdRE--16" style="edgeStyle=orthogonalEdgeStyle;rounded=0;orthogonalLoop=1;jettySize=auto;html=1;entryX=0.5;entryY=1;entryDx=0;entryDy=0;" edge="1" parent="1" source="01dSE9Dyc-d_T7btdRE--14" target="01dSE9Dyc-d_T7btdRE--15">
          <mxGeometry relative="1" as="geometry" />
        </mxCell>
        <mxCell id="01dSE9Dyc-d_T7btdRE--14" value="GitHub" style="rounded=0;whiteSpace=wrap;html=1;" vertex="1" parent="1">
          <mxGeometry x="390" y="940" width="120" height="60" as="geometry" />
        </mxCell>
        <mxCell id="01dSE9Dyc-d_T7btdRE--17" style="edgeStyle=orthogonalEdgeStyle;rounded=0;orthogonalLoop=1;jettySize=auto;html=1;" edge="1" parent="1" source="01dSE9Dyc-d_T7btdRE--15">
          <mxGeometry relative="1" as="geometry">
            <mxPoint x="280" y="700" as="targetPoint" />
          </mxGeometry>
        </mxCell>
        <mxCell id="01dSE9Dyc-d_T7btdRE--15" value="GitHub" style="rounded=0;whiteSpace=wrap;html=1;" vertex="1" parent="1">
          <mxGeometry x="390" y="670" width="120" height="60" as="geometry" />
        </mxCell>
      </root>
    </mxGraphModel>
  </diagram>
</mxfile>
